<svg width="16" height="17" viewBox="0 0 16 17" fill="none" xmlns="http://www.w3.org/2000/svg">
<g clip-path="url(#clip0_53_1052)">
<path d="M15.9845 5.20406C15.9471 4.35392 15.8096 3.76945 15.6126 3.26301C15.4095 2.72543 15.0969 2.24413 14.6874 1.84403C14.2873 1.4377 13.8028 1.12196 13.2715 0.921973C12.7621 0.725035 12.1807 0.587557 11.3306 0.550074C10.4741 0.509417 10.2022 0.500015 8.02987 0.500015C5.85757 0.500015 5.58567 0.509417 4.73236 0.546899C3.88222 0.584382 3.29775 0.721982 2.79143 0.918798C2.25373 1.12196 1.77243 1.43452 1.37233 1.84403C0.966002 2.24413 0.650389 2.7286 0.450277 3.25995C0.25334 3.76945 0.115862 4.35074 0.0783788 5.20088C0.0377215 6.05738 0.0283203 6.32928 0.0283203 8.50158C0.0283203 10.6739 0.0377215 10.9458 0.0752044 11.7991C0.112687 12.6492 0.250287 13.2337 0.447225 13.7402C0.650389 14.2777 0.966002 14.759 1.37233 15.1591C1.77243 15.5655 2.2569 15.8812 2.78825 16.0812C3.29775 16.2781 3.87904 16.4156 4.7293 16.4531C5.5825 16.4907 5.85452 16.5 8.02682 16.5C10.1991 16.5 10.471 16.4907 11.3243 16.4531C12.1745 16.4156 12.7589 16.2781 13.2653 16.0812C14.3405 15.6655 15.1907 14.8153 15.6064 13.7402C15.8032 13.2307 15.9408 12.6492 15.9783 11.7991C16.0158 10.9458 16.0252 10.6739 16.0252 8.50158C16.0252 6.32928 16.022 6.05738 15.9845 5.20406ZM14.5437 11.7366C14.5093 12.518 14.378 12.9399 14.2686 13.2213C13.9998 13.9183 13.4466 14.4715 12.7495 14.7403C12.4682 14.8497 12.0432 14.981 11.2649 15.0153C10.421 15.0529 10.1679 15.0622 8.03305 15.0622C5.89823 15.0622 5.64196 15.0529 4.8011 15.0153C4.01969 14.981 3.59774 14.8497 3.31643 14.7403C2.96956 14.6121 2.65383 14.409 2.39755 14.1433C2.13188 13.8839 1.92871 13.5713 1.80051 13.2244C1.69112 12.9431 1.55987 12.518 1.52556 11.7398C1.48795 10.8958 1.47867 10.6426 1.47867 8.5078C1.47867 6.37299 1.48795 6.11671 1.52556 5.27597C1.55987 4.49457 1.69112 4.07261 1.80051 3.79131C1.92871 3.44432 2.13188 3.1287 2.40073 2.8723C2.66006 2.60663 2.97262 2.40346 3.31961 2.27539C3.60091 2.16599 4.02604 2.03474 4.80427 2.00031C5.64818 1.96283 5.90141 1.95342 8.0361 1.95342C10.1741 1.95342 10.4272 1.96283 11.268 2.00031C12.0494 2.03474 12.4714 2.16599 12.7527 2.27539C13.0996 2.40346 13.4153 2.60663 13.6716 2.8723C13.9373 3.13175 14.1404 3.44432 14.2686 3.79131C14.378 4.07261 14.5093 4.49762 14.5437 5.27597C14.5812 6.11989 14.5906 6.37299 14.5906 8.5078C14.5906 10.6426 14.5812 10.8927 14.5437 11.7366Z" fill="white"/>
<path d="M8.0301 4.39138C5.76098 4.39138 3.91992 6.23232 3.91992 8.50156C3.91992 10.7708 5.76098 12.6117 8.0301 12.6117C10.2993 12.6117 12.1403 10.7708 12.1403 8.50156C12.1403 6.23232 10.2993 4.39138 8.0301 4.39138ZM8.0301 11.1677C6.55801 11.1677 5.36393 9.97377 5.36393 8.50156C5.36393 7.02935 6.55801 5.83539 8.0301 5.83539C9.50231 5.83539 10.6963 7.02935 10.6963 8.50156C10.6963 9.97377 9.50231 11.1677 8.0301 11.1677Z" fill="white"/>
<path d="M13.262 4.22889C13.262 4.75878 12.8323 5.18843 12.3023 5.18843C11.7724 5.18843 11.3428 4.75878 11.3428 4.22889C11.3428 3.69888 11.7724 3.26935 12.3023 3.26935C12.8323 3.26935 13.262 3.69888 13.262 4.22889Z" fill="white"/>
</g>
<defs>
<clipPath id="clip0_53_1052">
<rect width="16" height="16" fill="white" transform="translate(0 0.500015)"/>
</clipPath>
</defs>
</svg>
