<svg width="45" height="32" viewBox="0 0 45 32" fill="none" xmlns="http://www.w3.org/2000/svg">
<rect x="0.5" y="0.5" width="44" height="30.7647" rx="4.79412" fill="#1A1A1A" stroke="#333333"/>
<path fill-rule="evenodd" clip-rule="evenodd" d="M12.5064 11.0424C12.1287 11.5082 11.5244 11.8755 10.92 11.823C10.8445 11.1933 11.1403 10.5242 11.4866 10.1109C11.8643 9.63206 12.5253 9.29094 13.0604 9.26471C13.1233 9.92069 12.8778 10.5635 12.5064 11.0424ZM13.0539 11.9476C12.5215 11.9157 12.0357 12.1145 11.6433 12.2751C11.3908 12.3784 11.177 12.4659 11.0143 12.4659C10.8317 12.4659 10.6091 12.3737 10.3591 12.2702C10.0315 12.1346 9.65697 11.9796 9.26423 11.987C8.36402 12.0001 7.52676 12.5315 7.06721 13.3777C6.12293 15.0701 6.8217 17.576 7.7345 18.9535C8.18146 19.6357 8.71655 20.3836 9.42161 20.3573C9.73179 20.3451 9.95492 20.2465 10.1858 20.1444C10.4517 20.0268 10.7279 19.9047 11.1591 19.9047C11.5754 19.9047 11.8394 20.0236 12.093 20.1378C12.334 20.2463 12.5655 20.3506 12.9091 20.3442C13.6394 20.3311 14.0989 19.662 14.5459 18.9798C15.0282 18.2476 15.2402 17.533 15.2724 17.4245L15.2761 17.412C15.2754 17.4112 15.2694 17.4083 15.2589 17.4033C15.0977 17.3264 13.8652 16.7385 13.8534 15.162C13.8416 13.8387 14.8309 13.1682 14.9867 13.0627C14.9962 13.0563 15.0026 13.052 15.0054 13.0497C14.3759 12.0788 13.3939 11.9739 13.0539 11.9476ZM18.1093 20.2721V10.0454H21.792C23.6932 10.0454 25.0215 11.4098 25.0215 13.404C25.0215 15.3982 23.668 16.7757 21.7417 16.7757H19.6328V20.2721H18.1093ZM19.6326 11.3835H21.3889C22.7109 11.3835 23.4663 12.1181 23.4663 13.4104C23.4663 14.7027 22.7109 15.444 21.3826 15.444H19.6326V11.3835ZM30.0512 19.0453C29.6484 19.8456 28.7607 20.3507 27.8039 20.3507C26.3874 20.3507 25.3991 19.4717 25.3991 18.1466C25.3991 16.8347 26.356 16.0803 28.1249 15.9688L30.0261 15.8507V15.2866C30.0261 14.4535 29.5036 14.0008 28.5719 14.0008C27.8039 14.0008 27.2436 14.4141 27.1303 15.0439H25.7579C25.802 13.7188 26.9981 12.7545 28.6159 12.7545C30.3597 12.7545 31.4928 13.7057 31.4928 15.1816V20.272H30.0827V19.0453H30.0512ZM28.2125 19.1373C27.4004 19.1373 26.8842 18.7306 26.8842 18.1074C26.8842 17.4645 27.3815 17.0906 28.3321 17.0316L30.0255 16.9201V17.4973C30.0255 18.4551 29.2449 19.1373 28.2125 19.1373ZM36.1702 20.6722C35.5595 22.463 34.8608 23.0534 33.3751 23.0534C33.2618 23.0534 32.8841 23.0403 32.796 23.014V21.7873C32.8904 21.8004 33.1233 21.8136 33.2429 21.8136C33.9165 21.8136 34.2942 21.5184 34.5271 20.7509L34.6656 20.2983L32.0846 12.8529H33.6773L35.4714 18.8945H35.5029L37.297 12.8529H38.8456L36.1702 20.6722Z" fill="white"/>
</svg>
