<svg width="45" height="32" viewBox="0 0 45 32" fill="none" xmlns="http://www.w3.org/2000/svg">
<rect x="0.5" y="0.5" width="44" height="30.7647" rx="4.79412" fill="#1A1A1A" stroke="#333333"/>
<path fill-rule="evenodd" clip-rule="evenodd" d="M22.7368 22.2745C21.1698 23.5953 19.137 24.3926 16.9158 24.3926C11.9594 24.3926 7.94141 20.4225 7.94141 15.525C7.94141 10.6275 11.9594 6.65735 16.9158 6.65735C19.1371 6.65735 21.1698 7.4547 22.7369 8.77553C24.304 7.45473 26.3367 6.65739 28.5579 6.65739C33.5143 6.65739 37.5323 10.6276 37.5323 15.525C37.5323 20.4225 33.5143 24.3927 28.5579 24.3927C26.3367 24.3927 24.3039 23.5953 22.7368 22.2745Z" fill="#ED0006"/>
<path fill-rule="evenodd" clip-rule="evenodd" d="M22.7373 22.2741C24.6668 20.6476 25.8903 18.2275 25.8903 15.525C25.8903 12.8225 24.6668 10.4024 22.7373 8.77588C24.3045 7.45484 26.3374 6.65735 28.5588 6.65735C33.5152 6.65735 37.5332 10.6275 37.5332 15.525C37.5332 20.4225 33.5152 24.3926 28.5588 24.3926C26.3374 24.3926 24.3045 23.5951 22.7373 22.2741Z" fill="#F9A000"/>
<path fill-rule="evenodd" clip-rule="evenodd" d="M22.7368 22.2745C24.6665 20.648 25.8901 18.2278 25.8901 15.5251C25.8901 12.8225 24.6665 10.4022 22.7368 8.77576C20.8071 10.4022 19.5835 12.8225 19.5835 15.5251C19.5835 18.2278 20.8071 20.648 22.7368 22.2745Z" fill="#FF5E00"/>
</svg>
