<svg width="45" height="32" viewBox="0 0 45 32" fill="none" xmlns="http://www.w3.org/2000/svg">
<rect x="0.5" y="0.5" width="44" height="30.7647" rx="4.79412" fill="#1A1A1A" stroke="#333333"/>
<path fill-rule="evenodd" clip-rule="evenodd" d="M14.2279 20.9889H11.5017L9.45748 12.9605C9.36045 12.5912 9.15443 12.2647 8.85138 12.1109C8.09508 11.7242 7.26169 11.4164 6.35254 11.2612V10.9521H10.7441C11.3502 10.9521 11.8048 11.4164 11.8806 11.9556L12.9412 17.7468L15.666 10.9521H18.3164L14.2279 20.9889ZM19.8314 20.9889H17.2568L19.3768 10.9521H21.9514L19.8314 20.9889ZM25.2823 13.7326C25.3581 13.192 25.8127 12.8829 26.343 12.8829C27.1764 12.8053 28.0842 12.9605 28.8419 13.3459L29.2964 11.1849C28.5388 10.8758 27.7054 10.7206 26.9491 10.7206C24.4503 10.7206 22.632 12.1108 22.632 14.0403C22.632 15.5082 23.9199 16.2789 24.8291 16.7432C25.8127 17.2062 26.1915 17.5153 26.1157 17.9782C26.1157 18.6727 25.3581 18.9818 24.6018 18.9818C23.6927 18.9818 22.7835 18.7503 21.9514 18.3636L21.4969 20.5259C22.406 20.9112 23.3896 21.0665 24.2988 21.0665C27.1006 21.1427 28.8419 19.7538 28.8419 17.6691C28.8419 15.0439 25.2823 14.89 25.2823 13.7326V13.7326ZM37.8528 20.9889L35.8085 10.9521H33.6127C33.1582 10.9521 32.7036 11.2612 32.5521 11.7242L28.7666 20.9889H31.417L31.946 19.5224H35.2024L35.5055 20.9889H37.8528ZM33.991 13.6549L34.7473 17.4376H32.6273L33.991 13.6549Z" fill="white"/>
</svg>
