<svg width="40" height="40" viewBox="0 0 40 40" fill="none" xmlns="http://www.w3.org/2000/svg">
<g clip-path="url(#clip0_1966_16420)">
<path d="M38.4163 8.82585L20.2547 0.0581888C20.0937 -0.0194675 19.9062 -0.0194675 19.7453 0.0581888L1.58363 8.82585C1.38113 8.92358 1.25246 9.12866 1.25246 9.3535V30.6464C1.25246 30.8712 1.38113 31.0763 1.58363 31.174L19.7452 39.9417C19.8257 39.9805 19.9128 40 20 40C20.0871 40 20.1742 39.9805 20.2547 39.9417L38.4163 31.174C38.6188 31.0763 38.7475 30.8712 38.7475 30.6464V9.35358C38.7475 9.12858 38.6187 8.92366 38.4163 8.82585ZM20 1.23655L36.8138 9.3535L31.9398 11.7065C31.9089 11.683 31.8764 11.6612 31.8406 11.644L15.141 3.58225L20 1.23655ZM13.8177 4.24475L30.6071 12.3499L27.1684 14.01L10.386 5.90811L13.8177 4.24475ZM30.9999 13.4615V19.5979L27.7879 21.1485V15.0121L30.9999 13.4615ZM37.5756 30.2787L20.5859 38.4805V18.4889L24.6385 16.5325C24.9299 16.3918 25.0521 16.0415 24.9114 15.7501C24.7707 15.4587 24.4204 15.3364 24.1289 15.4772L20 17.4705L18.3753 16.6862C18.0838 16.5453 17.7335 16.6676 17.5928 16.959C17.4521 17.2505 17.5743 17.6008 17.8657 17.7415L19.414 18.4889V38.4805L2.42433 30.2786V10.287L15.3618 16.5327C15.4439 16.5724 15.5307 16.5912 15.6161 16.5912C15.8339 16.5912 16.0432 16.4691 16.1442 16.2598C16.2849 15.9684 16.1627 15.6181 15.8713 15.4774L3.18613 9.3535L9.00683 6.5435L26.6079 15.0406C26.6105 15.0442 26.6134 15.0474 26.616 15.0509V22.0821C26.616 22.2837 26.7197 22.4712 26.8905 22.5784C26.9853 22.638 27.0935 22.668 27.2021 22.668C27.2889 22.668 27.376 22.6487 27.4567 22.6098L31.8406 20.4934C32.0431 20.3957 32.1718 20.1907 32.1718 19.9658V12.8958L37.5756 10.2871V30.2787Z" fill="#1A1A1A"/>
<path d="M7.25982 28.0062L4.59459 26.7196C4.30302 26.5787 3.95287 26.701 3.81216 26.9924C3.67146 27.2839 3.79365 27.6342 4.08505 27.7749L6.75029 29.0615C6.8324 29.1012 6.9192 29.1199 7.00459 29.1199C7.2224 29.1199 7.43162 28.9979 7.53264 28.7886C7.67342 28.4971 7.55123 28.147 7.25982 28.0062Z" fill="#1A1A1A"/>
<path d="M9.71262 26.4095L4.59817 23.9404C4.30668 23.7997 3.95645 23.9219 3.81575 24.2134C3.67512 24.5048 3.79731 24.8551 4.08871 24.9958L9.20317 27.4649C9.28528 27.5045 9.37207 27.5233 9.45746 27.5233C9.67528 27.5233 9.8845 27.4013 9.98551 27.192C10.1262 26.9004 10.004 26.5501 9.71262 26.4095Z" fill="#1A1A1A"/>
</g>
<defs>
<clipPath id="clip0_1966_16420">
<rect width="40" height="40" fill="white"/>
</clipPath>
</defs>
</svg>
