<svg width="48" height="34" viewBox="0 0 48 34" fill="none" xmlns="http://www.w3.org/2000/svg">
<path d="M10.473 27.9455C10.0871 27.9455 9.71703 28.0988 9.44416 28.3717C9.1713 28.6445 9.01801 29.0146 9.01801 29.4005C9.01801 29.7864 9.1713 30.1565 9.44416 30.4293C9.71703 30.7022 10.0871 30.8555 10.473 30.8555C10.8589 30.8555 11.229 30.7022 11.5018 30.4293C11.7747 30.1565 11.928 29.7864 11.928 29.4005C11.928 29.0146 11.7747 28.6445 11.5018 28.3717C11.229 28.0988 10.8589 27.9455 10.473 27.9455Z" fill="#1A1A1A"/>
<path d="M40.533 27.9455C40.1471 27.9455 39.777 28.0988 39.5042 28.3717C39.2313 28.6445 39.078 29.0146 39.078 29.4005C39.078 29.7864 39.2313 30.1565 39.5042 30.4293C39.777 30.7022 40.1471 30.8555 40.533 30.8555C40.9189 30.8555 41.289 30.7022 41.5618 30.4293C41.8347 30.1565 41.988 29.7864 41.988 29.4005C41.988 29.0146 41.8347 28.6445 41.5618 28.3717C41.289 28.0988 40.9189 27.9455 40.533 27.9455Z" fill="#1A1A1A"/>
<path d="M45.978 16.946L41.07 15.311L37.9875 7.29652C37.7708 6.74005 37.3917 6.26165 36.8995 5.92352C36.4072 5.58538 35.8247 5.40315 35.2275 5.40052H22.521L22.506 5.22502C22.4761 4.86189 22.3103 4.52342 22.0417 4.2773C21.773 4.03117 21.4213 3.89554 21.057 3.89752H18.69V3.09502C18.6888 2.31101 18.3767 1.55948 17.8222 1.00524C17.2677 0.451008 16.516 0.139313 15.732 0.138519C14.9483 0.139709 14.1969 0.45158 13.6428 1.00577C13.0886 1.55997 12.7767 2.31127 12.7755 3.09502V3.89602H10.41C10.0457 3.89404 9.69399 4.02967 9.42534 4.2758C9.15669 4.52192 8.99085 4.86039 8.961 5.22352L8.946 5.39902H1.455C1.06911 5.39902 0.699025 5.55231 0.42616 5.82518C0.153294 6.09804 0 6.46813 0 6.85402L0 27.1445C0 27.9455 0.6525 28.5995 1.455 28.5995H6.0855C5.96921 29.2423 5.99535 29.9027 6.16206 30.5343C6.32877 31.1658 6.632 31.7531 7.05037 32.2547C7.46874 32.7563 7.99206 33.16 8.58343 33.4374C9.1748 33.7148 9.81982 33.859 10.473 33.86C11.1263 33.8591 11.7715 33.7148 12.363 33.4373C12.9545 33.1599 13.4779 32.756 13.8963 32.2542C14.3147 31.7524 14.6179 31.1649 14.7845 30.5332C14.9511 29.9015 14.977 29.2409 14.8605 28.598H36.1455C36.0292 29.2408 36.0553 29.9012 36.2221 30.5328C36.3888 31.1643 36.692 31.7516 37.1104 32.2532C37.5287 32.7548 38.0521 33.1585 38.6434 33.4359C39.2348 33.7133 39.8798 33.8575 40.533 33.8585C41.2043 33.8575 41.8666 33.7051 42.4709 33.4128C43.0751 33.1204 43.6057 32.6956 44.0231 32.17C44.4405 31.6443 44.7341 31.0313 44.8819 30.3765C45.0298 29.7217 45.0281 29.042 44.877 28.388L46.365 27.644C46.8571 27.4001 47.2711 27.0232 47.5601 26.5561C47.849 26.089 48.0014 25.5503 48 25.001V19.751C48.0002 19.1304 47.805 18.5254 47.4421 18.0219C47.0792 17.5184 46.5669 17.142 45.978 16.946ZM37.449 9.81202L39.51 15.17H37.2825L35.4975 9.81202H37.4475H37.449ZM35.799 15.17H30.012C29.8001 15.1696 29.597 15.0853 29.4471 14.9354C29.2973 14.7856 29.2129 14.5824 29.2125 14.3705V9.81202H34.014L35.799 15.17ZM14.184 3.09502C14.184 2.24002 14.88 1.54402 15.735 1.54402C16.59 1.54402 17.286 2.24002 17.286 3.09502V3.89602H14.1825V3.09502H14.184ZM8.9895 21.1295L10.362 5.34802C10.3628 5.33582 10.3682 5.32436 10.3771 5.316C10.386 5.30764 10.3978 5.30299 10.41 5.30302H12.7755V6.85402C12.7755 7.0406 12.8496 7.21954 12.9816 7.35147C13.1135 7.4834 13.2924 7.55752 13.479 7.55752C13.6656 7.55752 13.8445 7.4834 13.9764 7.35147C14.1084 7.21954 14.1825 7.0406 14.1825 6.85402V5.30302H17.2845V6.85402C17.2845 7.0406 17.3586 7.21954 17.4906 7.35147C17.6225 7.4834 17.8014 7.55752 17.988 7.55752C18.1746 7.55752 18.3535 7.4834 18.4855 7.35147C18.6174 7.21954 18.6915 7.0406 18.6915 6.85402V5.30302H21.057C21.0825 5.30302 21.102 5.32252 21.105 5.34802L22.4775 21.128C22.4775 21.1355 22.4775 21.1505 22.464 21.1655C22.449 21.1805 22.434 21.1805 22.428 21.1805H9.039C9.033 21.1805 9.018 21.1805 9.003 21.1655C8.9985 21.1608 8.99509 21.1551 8.99302 21.1488C8.99095 21.1426 8.99026 21.136 8.991 21.1295H8.9895ZM10.473 32.4545C9.66313 32.4537 8.88664 32.1318 8.31384 31.5592C7.74104 30.9867 7.41869 30.2104 7.4175 29.4005C7.4175 27.716 8.7885 26.345 10.473 26.345C12.1575 26.345 13.527 27.716 13.527 29.4005C13.5258 30.2101 13.2037 30.9862 12.6312 31.5587C12.0587 32.1312 11.2826 32.4533 10.473 32.4545ZM40.533 32.4545C39.7234 32.4533 38.9473 32.1312 38.3748 31.5587C37.8023 30.9862 37.4802 30.2101 37.479 29.4005C37.479 27.716 38.8485 26.345 40.533 26.345C42.2175 26.345 43.5885 27.716 43.5885 29.4005C43.5873 30.2104 43.265 30.9867 42.6922 31.5592C42.1194 32.1318 41.3429 32.4537 40.533 32.4545ZM46.593 21.182H45.7935C45.6985 21.1776 45.6036 21.1926 45.5145 21.2259C45.4254 21.2592 45.344 21.3103 45.2752 21.376C45.2064 21.4417 45.1516 21.5206 45.1142 21.6081C45.0768 21.6955 45.0575 21.7896 45.0575 21.8848C45.0575 21.9799 45.0768 22.074 45.1142 22.1615C45.1516 22.2489 45.2064 22.3279 45.2752 22.3936C45.344 22.4593 45.4254 22.5103 45.5145 22.5436C45.6036 22.577 45.6985 22.5919 45.7935 22.5875H46.5945V24.9995C46.5945 25.592 46.2645 26.1245 45.7365 26.3885L44.3445 27.0845C43.9468 26.4301 43.3875 25.8891 42.7202 25.5134C42.0529 25.1378 41.3002 24.9401 40.5345 24.9395C38.8755 24.9395 37.428 25.8485 36.6585 27.194H14.3475C13.958 26.5099 13.3943 25.9409 12.7139 25.545C12.0334 25.149 11.2603 24.9401 10.473 24.9395C8.8155 24.9395 7.368 25.8485 6.5985 27.194H1.4535C1.44103 27.1936 1.4292 27.1884 1.42052 27.1794C1.41184 27.1705 1.40699 27.1585 1.407 27.146V22.5875H5.2125C5.30752 22.5919 5.40244 22.577 5.49153 22.5436C5.58061 22.5103 5.66201 22.4593 5.73081 22.3936C5.7996 22.3279 5.85436 22.2489 5.89177 22.1615C5.92919 22.074 5.94848 21.9799 5.94848 21.8848C5.94848 21.7896 5.92919 21.6955 5.89177 21.6081C5.85436 21.5206 5.7996 21.4417 5.73081 21.376C5.66201 21.3103 5.58061 21.2592 5.49153 21.2259C5.40244 21.1926 5.30752 21.1776 5.2125 21.182H1.4055V6.85402C1.4055 6.82852 1.428 6.80602 1.455 6.80602H8.823L7.5885 21.008C7.57172 21.2087 7.59669 21.4107 7.66184 21.6012C7.72699 21.7918 7.83091 21.9668 7.96704 22.1151C8.10317 22.2635 8.26857 22.3821 8.45281 22.4634C8.63704 22.5447 8.83612 22.587 9.0375 22.5875H22.428C22.6294 22.587 22.8286 22.5447 23.0129 22.4634C23.1972 22.3821 23.3627 22.2636 23.4989 22.1152C23.6352 21.9668 23.7392 21.7919 23.8046 21.6013C23.8699 21.4108 23.8951 21.2088 23.8785 21.008L22.6425 6.80602H35.2275C35.865 6.80602 36.447 7.20652 36.675 7.80052L36.9075 8.40652H28.509C28.3227 8.40652 28.144 8.48043 28.0121 8.61204C27.8802 8.74365 27.8059 8.9222 27.8055 9.10852V14.369C27.8055 15.5855 28.7955 16.5755 30.012 16.5755H40.419L45.534 18.281C46.167 18.491 46.5945 19.0835 46.5945 19.751V21.182H46.593Z" fill="#1A1A1A"/>
<path d="M42.7875 21.182H26.2545C26.1595 21.1776 26.0646 21.1925 25.9755 21.2259C25.8864 21.2592 25.805 21.3103 25.7362 21.3759C25.6674 21.4416 25.6127 21.5206 25.5753 21.608C25.5378 21.6955 25.5186 21.7896 25.5186 21.8847C25.5186 21.9799 25.5378 22.074 25.5753 22.1614C25.6127 22.2489 25.6674 22.3279 25.7362 22.3935C25.805 22.4592 25.8864 22.5103 25.9755 22.5436C26.0646 22.577 26.1595 22.5919 26.2545 22.5875H42.7875C42.9683 22.5791 43.1389 22.5014 43.2639 22.3706C43.3888 22.2397 43.4586 22.0657 43.4586 21.8847C43.4586 21.7038 43.3888 21.5298 43.2639 21.3989C43.1389 21.268 42.9683 21.1903 42.7875 21.182Z" fill="#1A1A1A"/>
</svg>
