<svg width="28" height="28" viewBox="0 0 28 28" fill="none" xmlns="http://www.w3.org/2000/svg">
<path d="M17.436 4.375C18.9194 4.77396 20.2719 5.55567 21.3581 6.64184C22.4442 7.72801 23.226 9.08051 23.6249 10.5639" stroke="#00B307" stroke-width="1.5" stroke-linecap="round" stroke-linejoin="round"/>
<path d="M16.5305 7.75684C17.4203 7.99622 18.2317 8.46518 18.8832 9.11675C19.5348 9.76832 20.0038 10.5796 20.2431 11.4695" stroke="#00B307" stroke-width="1.5" stroke-linecap="round" stroke-linejoin="round"/>
<path d="M10.115 13.6517C11.0224 15.5074 12.5263 17.0049 14.3859 17.9042C14.522 17.9687 14.6727 17.9966 14.8229 17.9851C14.9731 17.9736 15.1178 17.9231 15.2425 17.8386L17.9812 16.0134C18.1022 15.9326 18.2414 15.8833 18.3862 15.8698C18.5311 15.8564 18.677 15.8792 18.8107 15.9364L23.9339 18.1326C24.1079 18.2065 24.2532 18.335 24.3479 18.4986C24.4426 18.6623 24.4815 18.8523 24.4589 19.04C24.2967 20.307 23.6784 21.4714 22.7196 22.3153C21.7608 23.1593 20.5273 23.6249 19.25 23.625C15.3049 23.625 11.5214 22.0578 8.73179 19.2682C5.94218 16.4786 4.375 12.6951 4.375 8.74998C4.37512 7.47277 4.84074 6.23939 5.68471 5.28076C6.52867 4.32212 7.6931 3.70395 8.96 3.54198C9.14771 3.51934 9.33769 3.5583 9.50134 3.65299C9.66499 3.74768 9.79345 3.89297 9.86738 4.06698L12.0654 9.19448C12.1219 9.32697 12.1449 9.47136 12.1322 9.61484C12.1195 9.75832 12.0716 9.89645 11.9928 10.017L10.1728 12.7977C10.0901 12.923 10.0414 13.0674 10.0313 13.2171C10.0212 13.3668 10.05 13.5165 10.115 13.6517V13.6517Z" stroke="#00B307" stroke-width="1.5" stroke-linecap="round" stroke-linejoin="round"/>
</svg>
